TexturaLiberaEx-ExtraLight.sfdir
StartChar: seven
Encoding: 55 55 23
Width: 480
Flags: W
HStem: 98 54<278.593 367.032> 123 54<143.248 227.754> 323 54<165.403 359.744> 407 20G<86 178 376 447> 407 20G<86 178 376 447>
VStem: 213 54<-95 97.7798>
LayerCount: 2
Back
SplineSet
220 -100 m 25
 260 -140 l 1049
90 400 m 1
 90 400 164 350 270 350 c 3
 335 350 420 400 420 400 c 1
 420 400 240 276 240 0 c 3
 240 -32 240 -120 240.599609376 -120 c 1025
120 125 m 25
 120 125 176 150 210 150 c 24
 263 150 247 125 300 125 c 24
 334 125 390 150 391 150 c 1049
EndSplineSet
Fore
SplineSet
93 109 m 1xa4
 136 152 l 1xa4
 136 152 192 177 226 177 c 0x64
 234 177 240 176 245 175 c 1
 275 257 319 313 351 347 c 1
 322 335 286 323 254 323 c 0
 148 323 74 373 74 373 c 1
 63 384 l 1
 106 427 l 1
 106 427 180 377 286 377 c 0
 351 377 436 427 436 427 c 1
 447 416 l 1
 404 373 l 1
 404 373 399 369 390 361 c 0
 353 319 308 252 284 157 c 1
 291 154 301 152 316 152 c 0xb4
 350 152 406 177 407 177 c 2
 418 166 l 1
 375 123 l 2x64
 374 123 318 98 284 98 c 0xa4
 280 98 277 99 273 99 c 0
 269 73 267 45 267 16 c 0
 267 -16 267 -103 267 -104 c 2
 267 -105 l 1
 287 -124 l 1
 244 -167 l 1
 193 -116 l 1
 213 -95 l 1
 213 -67 213 -34 213 -16 c 0
 213 33 219 77 228 117 c 1
 221 120 211 123 194 123 c 0x64
 160 123 104 98 104 98 c 1
 93 109 l 1xa4
225 -147 m 1
 225 -147 l 1
EndSplineSet
Substitution2: "Subscript forms-1" seven.inferior
Substitution2: "Superscript forms-1" seven.superior
EndChar
StartChar: eight
Encoding: 56 56 24
Width: 480
Flags: W
HStem: 607 20G<236 276>
VStem: 93 54<104 189 406 464> 333 54<136 244 461 496>
LayerCount: 2
Back
SplineSet
240 600 m 25
 120 480 l 25
 120 385 l 25
 240 325 l 25
 360 445 l 25
 360 480 l 25
 240 600 l 25
240 325 m 25
 120 205 l 25
 120 120 l 25
 240 0 l 25
 360 120 l 25
 360 265 l 25
 240 325 l 25
EndSplineSet
Fore
SplineSet
224 573 m 1
 147 496 l 1
 147 406 l 1
 256 352 l 2
 256 352 326 422 333 429 c 1
 333 464 l 2
 333 525 256 541 224 573 c 1
93 464 m 1
 256 627 l 1
 387 496 l 1
 387 461 l 1
 271 344 l 1
 376 292 l 1
 387 281 l 1
 387 136 l 1
 224 -27 l 1
 93 104 l 1
 93 189 l 1
 209 306 l 1
 104 358 l 1
 93 369 l 1
 93 464 l 1
224 298 m 1
 147 221 l 1
 147 136 l 2
 147 75 224 59 256 27 c 1
 333 104 l 1
 333 244 l 1
 224 298 l 1
EndSplineSet
Substitution2: "Subscript forms-1" eight.inferior
Substitution2: "Superscript forms-1" eight.superior
EndChar
StartChar: nine
Encoding: 57 57 25
Width: 480
Flags: W
HStem: -177 54<140.944 236.293> 407 20G<236 276> 407 20G<236 276>
VStem: 93 54<136 264> 333 54<-124 82 104 264>
LayerCount: 2
Back
SplineSet
360 120 m 1
 240 0 l 1
 120 120 l 25
 120 280 l 25
 240 400 l 25
 360 280 l 1
 360 -140 l 9
 300 -200 l 17
 300 -200 231 -150 180 -150 c 27
 140 -150 90 -200 90 -200 c 1025
EndSplineSet
Fore
SplineSet
333 104 m 1x98
 333 264 l 1
 224 373 l 1
 147 296 l 1
 147 136 l 1
 256 27 l 1
 333 104 l 1x98
333 82 m 1
 224 -27 l 1
 93 104 l 1
 93 264 l 1
 256 427 l 1xd8
 387 296 l 1
 387 -124 l 1
 284 -227 l 1
 284 -227 215 -177 164 -177 c 0
 124 -177 74 -227 74 -227 c 1
 63 -216 l 1
 106 -173 l 1
 106 -173 156 -123 196 -123 c 0
 247 -123 316 -173 316 -173 c 1
 333 -156 l 1
 333 82 l 1
EndSplineSet
Substitution2: "Subscript forms-1" nine.inferior
Substitution2: "Superscript forms-1" nine.superior
EndChar
StartChar: equal
Encoding: 61 61 29
Width: 720
Flags: W
HStem: 173 54<136 584> 373 54<136 584>
LayerCount: 2
Back
SplineSet
120 200 m 25
 600 200 l 1049
120 400 m 25
 600 400 l 1049
EndSplineSet
Fore
SplineSet
93 384 m 1
 136 427 l 1
 616 427 l 1
 627 416 l 1
 584 373 l 1
 104 373 l 1
 93 384 l 1
93 184 m 1
 136 227 l 1
 616 227 l 1
 627 216 l 1
 584 173 l 1
 104 173 l 1
 93 184 l 1
EndSplineSet
EndChar
StartChar: greater
Encoding: 62 62 30
Width: 720
Flags: W
HStem: 507 20G<116 184>
LayerCount: 2
Back
SplineSet
120 500 m 25
 600 300 l 25
 120 100 l 1049
EndSplineSet
Fore
SplineSet
93 484 m 1
 136 527 l 1
 616 327 l 1
 627 316 l 1
 584 273 l 1
 104 73 l 1
 93 84 l 1
 136 127 l 1
 536 294 l 1
 104 473 l 1
 93 484 l 1
EndSplineSet
EndChar
StartChar: question
Encoding: 63 63 31
Width: 480
Flags: W
HStem: 607 20G<206 286>
VStem: 93 54<466 494> 213 54<206 304> 333 54<456 527>
CounterMasks: 1 70
LayerCount: 2
Back
SplineSet
120 450 m 25
 120 510 l 25
 210 600 l 25
 360 550 l 25
 360 440 l 25
 240 320 l 25
 240 190 l 1049
220 40 m 25
 260 0 l 1049
EndSplineSet
Fore
SplineSet
193 24 m 1
 236 67 l 1
 287 16 l 1
 244 -27 l 1
 193 24 l 1
104 423 m 1
 93 434 l 1
 93 494 l 1
 226 627 l 1
 376 577 l 1
 387 566 l 1
 387 456 l 1
 267 336 l 1
 267 206 l 1
 224 163 l 1
 213 174 l 1
 213 304 l 1
 333 424 l 1
 333 527 l 1
 194 573 l 1
 147 526 l 1
 147 466 l 1
 104 423 l 1
EndSplineSet
EndChar
StartChar: N
Encoding: 78 78 46
Width: 900
Flags: W
HStem: -27 21G<33 59 303 334 684 724> 23 54<110.53 275.6> 523 21G<33 63> 548 54<191.352 232> 573 54<106.919 207.259> 573 29<263.744 285>
VStem: 232 16<75 549> 363 54<76 524> 633 54<45.3073 431>
AnchorPoint: "blwmark" 480 0 basechar 0
AnchorPoint: "abvmark" 480 700 basechar 0
LayerCount: 2
Back
SplineSet
60 550 m 1
 60 550 101 600 149 600 c 3
 192 600 214 575 240 575 c 3
 274 575 300 600 301 600 c 1025
240 550 m 1
 240 75 l 1025
60 0 m 17
 60 0 97 50 180 50 c 3
 298 50 330 0 330 0 c 1
 390 60 l 1
 390 540 l 1
 450 600 l 1
 660 450 l 1
 660 60 l 1
 720 0 l 9
 780 60 l 1049
EndSplineSet
Fore
SplineSet
44 -27 m 1xe780
 33 -16 l 1
 33 -16 35 -12 39 -8 c 2
 82 34 l 2
 96 48 133 77 196 77 c 0
 209 77 221 76 232 75 c 1
 232 549 l 2
 230 549 227 548 224 548 c 0xf380
 198 548 176 573 133 573 c 0
 105 573 80 556 63 541 c 2
 44 523 l 1
 33 534 l 1
 33 534 37 539 42 544 c 2
 84 586 l 2
 99 601 131 627 165 627 c 0xeb80
 208 627 230 602 256 602 c 0xe780
 290 602 316 627 317 627 c 2xeb80
 328 616 l 1
 285 573 l 2xe780
 284 573 270 559 248 552 c 1
 248 73 l 1
 302 65 329 45 340 34 c 2
 346 27 l 1
 363 44 l 1
 363 524 l 1
 466 627 l 1xeb80
 676 477 l 1
 687 466 l 1
 687 76 l 2
 687 49 722 41 736 27 c 1
 796 87 l 1
 807 76 l 1
 704 -27 l 1
 633 44 l 1
 633 431 l 1
 434 573 l 1
 417 556 l 1
 417 76 l 1
 314 -27 l 1
 303 -16 l 2
 303 -16 303 -15 302 -14 c 0
 284 0 243 23 164 23 c 0
 111 23 77 3 59 -12 c 2
 44 -27 l 1xe780
EndSplineSet
EndChar
StartChar: P
Encoding: 80 80 48
Width: 840
Flags: W
HStem: -27 21G<33 59 303 334> 23 54<111.09 277.656> 273 54<417.14 518.072> 523 21G<33 63> 548 54<191.352 232> 573 54<106.919 207.259> 573 29<263.744 285>
VStem: 232 16<75 549> 363 54<76 265 325 524> 693 54<386 453>
AnchorPoint: "blwmark" 480 0 basechar 0
AnchorPoint: "abvmark" 480 700 basechar 0
LayerCount: 2
Back
SplineSet
300 250 m 17
 300 250 369 300 420 300 c 27
 511 300 600 250 600 250 c 1
 720 370 l 1
 720 475 l 1
 450 600 l 1
 390 540 l 1
 390 60 l 1
 330 0 l 1
 330 0 298 50 180 50 c 3
 97 50 60 0 60 0 c 1033
60 550 m 1
 60 550 101 600 149 600 c 3
 192 600 214 575 240 575 c 3
 274 575 300 600 301 600 c 1025
240 550 m 1
 240 75 l 1025
EndSplineSet
Fore
SplineSet
44 523 m 1xf5c0
 33 534 l 1
 33 534 37 539 42 544 c 2
 84 586 l 2
 99 601 131 627 165 627 c 0xf5c0
 208 627 230 602 256 602 c 0xf3c0
 290 602 316 627 317 627 c 2xf5c0
 328 616 l 1
 285 573 l 2xf3c0
 284 573 270 559 248 552 c 1
 248 73 l 1
 302 65 329 45 340 34 c 2
 346 27 l 1
 363 44 l 1
 363 265 l 2
 361 264 360 264 358 263 c 0
 319 248 284 223 284 223 c 1
 273 234 l 1
 316 277 l 1
 316 277 336 291 363 305 c 1
 363 524 l 1
 466 627 l 1xf5c0
 736 502 l 1
 747 491 l 1
 747 386 l 1
 584 223 l 1
 584 223 504 269 417 273 c 1
 417 76 l 1
 314 -27 l 1
 303 -16 l 1
 303 -16 303 -15 302 -14 c 0
 284 1 243 23 164 23 c 0
 110 23 76 2 59 -12 c 2
 44 -27 l 1
 33 -16 l 1
 33 -16 35 -12 39 -8 c 2
 82 34 l 2
 96 48 133 77 196 77 c 0
 209 77 221 76 232 75 c 1
 232 549 l 2
 230 549 227 548 224 548 c 0xf9c0
 198 548 176 573 133 573 c 0
 105 573 80 556 63 541 c 2
 44 523 l 1xf5c0
417 325 m 2
 420 326 422 326 425 326 c 0
 429 326 432 327 436 327 c 0
 527 327 616 277 616 277 c 2
 616 277 686 347 693 354 c 1
 693 453 l 1
 434 573 l 2xf3c0
 434 573 419 558 417 556 c 2
 417 325 l 2
EndSplineSet
EndChar
StartChar: U
Encoding: 85 85 53
Width: 840
Flags: W
HStem: -27 54<322.918 504.561> 523 21G<33 63> 573 54<106.919 285.069> 573 29<507.512 525>
VStem: 123 54<151.095 367.132> 322 16<43 552> 453 54<116 534> 693 54<59 112 124.788 164 168 566>
AnchorPoint: "blwmark" 420 0 basechar 0
AnchorPoint: "abvmark" 540 700 basechar 0
LayerCount: 2
Back
SplineSet
480 550 m 1
 480 100 l 1025
695 50 m 25
 745 0 l 25
 795 50 l 1049
695 625 m 25
 745 575 l 1049
720 600 m 9
 720 25 l 1049
300 550 m 1
 300 550 150 466 150 250 c 3
 150 84 257 0 420 0 c 3
 563 0 721 150 722 150 c 1049
60 550 m 1
 60 550 101 600 149 600 c 3
 245 600 274 575 480 575 c 3
 514 575 540 600 541 600 c 1025
330 525 m 1
 330 50 l 1025
EndSplineSet
Fore
SplineSet
44 523 m 1xef
 33 534 l 1
 33 534 37 539 42 544 c 2
 84 586 l 2
 99 601 131 627 165 627 c 0xef
 261 627 290 602 496 602 c 0xdf
 530 602 556 627 557 627 c 2xef
 568 616 l 1
 525 573 l 2xdf
 524 573 518 566 507 560 c 1
 507 116 l 1
 464 73 l 1
 453 84 l 1
 453 534 l 1
 467 548 l 2
 466 548 465 548 464 548 c 0
 412 548 371 550 338 552 c 1
 338 39 l 1
 368 31 401 27 436 27 c 0
 533 27 636 96 693 140 c 1
 693 584 l 1
 668 609 l 1
 711 652 l 1
 736 627 l 1
 747 616 l 1
 772 591 l 1
 747 566 l 1
 747 168 l 1
 749 166 l 1
 747 164 l 1
 747 41 l 1
 761 27 l 1
 811 77 l 1
 822 66 l 1
 729 -27 l 1
 699 4 l 1
 693 9 l 1
 668 34 l 1
 693 59 l 1
 693 112 l 1
 652 77 523 -27 404 -27 c 0
 317 -27 246 -3 199 44 c 2
 188 56 l 2
 146 98 123 156 123 234 c 0
 123 367 180 451 224 495 c 0
 225 496 l 2
 267 538 l 2
 274 545 282 552 288 557 c 1
 225 564 191 573 133 573 c 0
 105 573 80 556 63 541 c 2
 44 523 l 1xef
322 553 m 2
 320 553 317 554 315 554 c 2
 284 523 l 1
 284 523 273 517 258 504 c 0
 218 456 177 380 177 266 c 0
 177 192 198 133 236 92 c 0
 260 70 289 54 322 43 c 1
 322 553 l 2
EndSplineSet
EndChar
StartChar: V
Encoding: 86 86 54
Width: 840
Flags: W
HStem: -27 21G<423 454> 123 54<170.338 232 248 326.566> 523 21G<33 63> 548 54<191.352 232> 573 54<106.919 207.259> 573 29<263.744 285>
VStem: 232 16<177 549> 363 54<266 524> 573 54<425.03 490.219> 663 54<257 356.992>
AnchorPoint: "blwmark" 450 0 basechar 0
AnchorPoint: "abvmark" 540 700 basechar 0
LayerCount: 2
Back
SplineSet
60 550 m 1
 60 550 101 600 149 600 c 3
 192 600 214 575 240 575 c 3
 274 575 300 600 301 600 c 1025
240 550 m 1
 240 175 l 1025
390 250 m 1
 390 540 l 1
 450 600 l 1025
120 100 m 17
 120 100 166 150 210 150 c 3
 449 150 450 0 450 0 c 1
 690 241.200195312 l 1
 690 378 l 1
 690 378 600 382.799804688 600 450 c 3
 600 516 720 600 720 600 c 1025
EndSplineSet
Fore
SplineSet
104 73 m 1xe7c0
 93 84 l 1
 93 84 94 86 96 88 c 2
 139 130 l 2
 150 141 189 177 226 177 c 0
 228 177 230 177 232 177 c 2
 232 549 l 2
 230 549 227 548 224 548 c 0xf3c0
 198 548 176 573 133 573 c 0
 105 573 80 556 63 541 c 2
 44 523 l 1
 33 534 l 1
 33 534 37 539 42 544 c 2
 84 586 l 2
 99 601 131 627 165 627 c 0xebc0
 208 627 230 602 256 602 c 0xe7c0
 290 602 316 627 317 627 c 2xebc0
 328 616 l 1
 285 573 l 2
 284 573 270 559 248 552 c 1
 248 176 l 1
 340 172 393 145 424 114 c 2
 435 103 l 2
 459 79 470 52 474 35 c 1
 663 226 l 1
 663 352 l 1
 648 354 620 362 602 380 c 2
 591 391 l 2
 590 392 l 0
 580 402 573 415 573 434 c 0
 573 466 600 502 629 531 c 2
 672 573 l 2xe7c0
 703 604 736 627 736 627 c 1xebc0
 747 616 l 1
 704 573 l 2
 704 573 687 561 664 541 c 1
 644 518 627 490 627 466 c 0
 627 450 631 438 639 428 c 0
 665 407 706 405 706 405 c 1
 717 394 l 1
 717 257 l 1
 477 16 l 1
 434 -27 l 1
 423 -16 l 1
 423 -16 423 -14 423 -10 c 0
 422 3 415 35 387 66 c 1
 353 96 294 123 194 123 c 0
 160 123 126 94 111 80 c 2
 104 73 l 1xe7c0
374 223 m 1
 363 234 l 1
 363 524 l 1
 466 627 l 1xebc0
 477 616 l 1
 417 556 l 1
 417 266 l 1
 374 223 l 1
EndSplineSet
EndChar
StartChar: bracketright
Encoding: 93 93 61
Width: 360
Flags: W
HStem: -177 54<76 213> 673 54<76 213>
VStem: 213 54<-123 673>
LayerCount: 2
Back
SplineSet
60 700 m 25
 240 700 l 25
 240 -150 l 25
 60 -150 l 1033
EndSplineSet
Fore
SplineSet
33 684 m 1
 76 727 l 1
 256 727 l 1
 267 716 l 1
 267 -134 l 1
 224 -177 l 1
 44 -177 l 1
 33 -166 l 1
 76 -123 l 1
 213 -123 l 1
 213 673 l 1
 44 673 l 1
 33 684 l 1
EndSplineSet
EndChar
StartChar: g
Encoding: 103 103 71
Width: 480
Flags: W
HStem: -227 54<231.566 303.341> -177 54<107.874 186.254> 325 54<280.271 325.926> 407 20G<236 267 356 387> 407 20G<236 267 356 387>
VStem: 93 54<104 264> 333 54<-134 82 104 354 382.047 384>
AnchorPoint: "abvmark" 270 500 basechar 0
LayerCount: 2
Back
SplineSet
60 -200 m 17
 60 -200 104 -150 150 -150 c 8
 175 -150 243 -200 270 -200 c 24
 296 -200 360 -150 360 -150 c 9
 360 400 l 1
 360 400 336 352 300 352 c 24
 264 352 240 400 240 400 c 1
 120 280 l 25
 120 120 l 25
 240 0 l 25
 360 120 l 1041
EndSplineSet
Fore
SplineSet
333 354 m 1x26
 323 344 l 2
 313 334 299 325 284 325 c 0
 269 325 256 334 246 344 c 2
 234 355 l 2
 229 360 225 365 222 370 c 1
 147 296 l 1
 147 136 l 2
 147 75 224 59 256 27 c 1
 333 104 l 1
 333 354 l 1x26
333 82 m 1
 224 -27 l 1
 93 104 l 1
 93 264 l 1
 256 427 l 1
 267 416 l 1
 267 416 273 405 283 393 c 0
 292 385 303 379 316 379 c 0
 322 379 326 380 332 382 c 0
 333 383 333 384 333 384 c 1
 376 427 l 1
 387 416 l 1
 387 -134 l 1
 344 -177 l 1x76
 344 -177 280 -227 254 -227 c 0xa6
 227 -227 159 -177 134 -177 c 0x66
 102 -177 72 -200 56 -215 c 2
 44 -227 l 1xa6
 33 -216 l 1
 33 -216 36 -213 39 -210 c 2
 81 -167 l 2
 94 -154 130 -123 166 -123 c 0x66
 191 -123 259 -173 286 -173 c 0xa6
 298 -173 317 -163 333 -153 c 1
 333 82 l 1
EndSplineSet
EndChar
StartChar: h
Encoding: 104 104 72
Width: 480
Flags: W
HStem: 407 20G<266 306> 407 20G<266 306>
VStem: 93 54<44 266 288 581> 333 54<44 326>
AnchorPoint: "blwmark" 240 0 basechar 0
AnchorPoint: "abvmark" 240 700 basechar 0
LayerCount: 2
Back
SplineSet
340 40 m 25
 380 0 l 1049
100 40 m 25
 140 0 l 1049
100 625 m 25
 140 585 l 1049
120 605 m 9
 120 20 l 1049
360 20 m 25
 360 310 l 25
 270 400 l 1
 120 250 l 1049
EndSplineSet
Fore
SplineSet
73 609 m 1xb0
 116 652 l 1
 136 632 l 1
 147 621 l 1
 167 601 l 1
 147 581 l 1
 147 288 l 1
 286 427 l 1
 387 326 l 1
 387 36 l 1
 407 16 l 1
 364 -27 l 1
 344 -7 l 1
 333 4 l 1
 313 24 l 1
 333 44 l 1
 333 294 l 2
 333 338 277 350 254 373 c 1
 147 266 l 1
 147 36 l 1
 167 16 l 1
 124 -27 l 1
 104 -7 l 1
 93 4 l 1
 73 24 l 1
 93 44 l 1
 93 234 l 1
 93 589 l 1
 73 609 l 1xb0
EndSplineSet
Substitution2: "Stylistic alternates-1" h.alt
EndChar
StartChar: r
Encoding: 114 114 82
Width: 360
Flags: W
HStem: 407 20G<96 136 236 276> 407 20G<96 136 236 276>
VStem: 93 54<44 296 318 356>
AnchorPoint: "blwmark" 180 0 basechar 0
AnchorPoint: "abvmark" 180 500 basechar 0
LayerCount: 2
Back
SplineSet
300 340 m 25
 240 400 l 25
 120 280 l 1049
100 40 m 25
 140 0 l 1049
100 400 m 25
 140 360 l 1049
120 380 m 9
 120 20 l 1025
EndSplineSet
Fore
SplineSet
73 384 m 1xa0
 116 427 l 1
 136 407 l 1
 147 396 l 1
 167 376 l 1
 147 356 l 1
 147 318 l 1
 256 427 l 1
 327 356 l 1
 284 313 l 1
 224 373 l 1
 147 296 l 1
 147 36 l 1
 167 16 l 1
 124 -27 l 1
 104 -7 l 1
 93 4 l 1
 73 24 l 1
 93 44 l 1
 93 264 l 1
 93 364 l 1
 73 384 l 1xa0
EndSplineSet
EndChar
StartChar: x
Encoding: 120 120 88
Width: 480
Flags: W
HStem: 198 54<143.278 212.577> 198 4<316 375> 407 20G<116 156 356 396> 407 20G<116 156 356 396>
VStem: 213 54<136 150 250 264>
AnchorPoint: "blwmark" 240 0 basechar 0
AnchorPoint: "abvmark" 240 500 basechar 0
LayerCount: 2
Back
SplineSet
90 175 m 25
 90 175 146 225 180 225 c 24
 233 225 247 175 300 175 c 24
 334 175 390 225 391 225 c 1049
240 280 m 9
 360 400 l 25
 420 340 l 1049
240 120 m 9
 360 0 l 1
 420 60 l 1049
60 340 m 25
 120 400 l 25
 240 280 l 25
 240 120 l 25
 120 0 l 25
 60 60 l 1049
EndSplineSet
Fore
SplineSet
44 313 m 1x88
 33 324 l 1
 136 427 l 1
 256 307 l 1
 376 427 l 1
 447 356 l 1
 404 313 l 1
 344 373 l 1
 267 296 l 1
 267 219 l 1
 280 210 295 202 316 202 c 0x68
 350 202 406 252 407 252 c 2x88
 418 241 l 1
 375 198 l 2x48
 374 198 318 148 284 148 c 0
 278 148 272 149 267 150 c 1
 267 136 l 1
 376 27 l 1
 436 87 l 1
 447 76 l 1
 344 -27 l 1
 224 93 l 1
 104 -27 l 1
 33 44 l 1
 76 87 l 1
 136 27 l 1
 213 104 l 1
 213 181 l 1
 200 190 185 198 164 198 c 0x88
 130 198 74 148 74 148 c 1
 63 159 l 1
 106 202 l 1x48
 106 202 162 252 196 252 c 0
 202 252 208 251 213 250 c 1
 213 264 l 1
 104 373 l 1
 44 313 l 1x88
EndSplineSet
EndChar
StartChar: braceleft
Encoding: 123 123 91
Width: 360
Flags: W
HStem: -177 21G<236 304>
VStem: 153 54<-78 178 386 564>
LayerCount: 2
Back
SplineSet
300 700 m 25
 180 580 l 1
 180 370 l 25
 60 250 l 25
 180 200 l 25
 180 -100 l 1
 300 -150 l 1049
EndSplineSet
Fore
SplineSet
316 727 m 1
 327 716 l 1
 207 596 l 1
 207 386 l 1
 92 270 l 1
 196 227 l 1
 207 216 l 1
 207 -78 l 1
 316 -123 l 1
 327 -134 l 1
 284 -177 l 1
 164 -127 l 1
 153 -116 l 1
 153 178 l 1
 44 223 l 1
 33 234 l 1
 153 354 l 1
 153 564 l 1
 316 727 l 1
EndSplineSet
EndChar
StartChar: cent
Encoding: 162 162 202
Width: 540
Flags: W
HStem: -177 21G<273 304> 607 20G<296 327>
VStem: 93 54<121 204> 273 54<-134 -21 50 345 419 584>
LayerCount: 2
Back
SplineSet
300 600 m 25
 300 -150 l 1049
480 280 m 9
 300 400 l 25
 120 220 l 25
 120 100 l 25
 300 0 l 25
 480 100 l 1041
EndSplineSet
Fore
SplineSet
507 296 m 1
 464 253 l 1
 327 345 l 1
 327 33 l 1
 496 127 l 1
 507 116 l 1
 464 73 l 1
 327 -3 l 1
 327 -134 l 1
 284 -177 l 1
 273 -166 l 1
 273 -21 l 1
 104 73 l 1
 93 84 l 1
 93 204 l 1
 273 384 l 1
 273 584 l 1
 316 627 l 1
 327 616 l 1
 327 419 l 1
 496 307 l 1
 507 296 l 1
273 362 m 1
 242 331 157 246 147 236 c 1
 147 121 l 1
 273 50 l 1
 273 362 l 1
EndSplineSet
EndChar
StartChar: section
Encoding: 167 167 206
Width: 600
Flags: W
HStem: -167 54<139.036 267.368> 613 54<339.603 469.723>
VStem: 93 54<183 264 473 564> 453 54<-64 27 236 317>
LayerCount: 2
Back
SplineSet
240 400 m 25
 120 280 l 25
 120 160 l 25
 480 50 l 25
 480 -80 l 25
 360 -200 l 17
 360 -200 264 -140 196 -140 c 27
 138 -140 60 -200 60 -200 c 1033
540 700 m 17
 540 700 473 640 420 640 c 27
 345 640 240 700 240 700 c 9
 120 580 l 25
 120 450 l 25
 480 340 l 25
 480 220 l 25
 360 100 l 1049
EndSplineSet
Fore
SplineSet
567 716 m 1
 524 673 l 1
 524 673 457 613 404 613 c 0
 329 613 224 673 224 673 c 2
 224 673 154 603 147 596 c 1
 147 473 l 1
 496 367 l 1
 507 356 l 1
 507 236 l 1
 383 111 l 1
 496 77 l 1
 507 66 l 1
 507 -64 l 1
 344 -227 l 1
 344 -227 248 -167 180 -167 c 0
 122 -167 44 -227 44 -227 c 1
 33 -216 l 1
 76 -173 l 1
 76 -173 154 -113 212 -113 c 0
 280 -113 376 -173 376 -173 c 1
 453 -96 l 1
 453 27 l 1
 104 133 l 1
 93 144 l 1
 93 264 l 1
 217 389 l 1
 104 423 l 1
 93 434 l 1
 93 564 l 1
 256 727 l 1
 256 727 361 667 436 667 c 0
 489 667 556 727 556 727 c 1
 567 716 l 1
365 117 m 1
 453 204 l 1
 453 317 l 1
 235 383 l 1
 147 296 l 1
 147 183 l 1
 365 117 l 1
EndSplineSet
EndChar
StartChar: guillemotright
Encoding: 187 187 216
Width: 660
Flags: W
HStem: 23 329
LayerCount: 2
Back
SplineSet
390 325 m 17
 390 325 416.080078124 295.744140624 450 275 c 0
 564 207 600 200 600 200 c 1
 600 200 523 174 420 100 c 0
 394.849609376 81.732421875 360 50 360 50 c 1033
90 325 m 17
 90 325 116.080078125 295.744140624 150 275 c 0
 264 207 300 200 300 200 c 1
 300 200 223 174 120 100 c 0
 94.849609375 81.732421875 60 50 60 50 c 1033
EndSplineSet
Fore
SplineSet
106 352 m 1
 117 341 l 1
 117 341 118 339 119 338 c 0
 130 328 147 314 166 302 c 0
 246 254 287 236 305 230 c 0
 312 227 316 227 316 227 c 1
 327 216 l 1
 284 173 l 1
 284 173 281 172 275 170 c 0
 252 161 186 132 104 73 c 0
 79 55 44 23 44 23 c 1
 33 34 l 1
 76 77 l 1
 76 77 111 109 136 127 c 0
 175 155 209 176 238 191 c 1
 215 202 181 220 134 248 c 0
 111 262 92 280 82 290 c 2
 71 301 l 2
 63 309 l 1
 106 352 l 1
406 352 m 1
 417 341 l 1
 417 341 418 339 419 338 c 0
 430 328 447 314 466 302 c 0
 546 254 587 236 605 230 c 0
 612 227 616 227 616 227 c 1
 627 216 l 1
 584 173 l 1
 584 173 581 172 575 170 c 0
 552 161 486 132 404 73 c 0
 379 55 344 23 344 23 c 1
 333 34 l 1
 376 77 l 1
 376 77 411 109 436 127 c 0
 475 155 509 176 538 191 c 1
 515 202 481 220 434 248 c 0
 411 262 392 280 382 290 c 2
 371 301 l 2
 363 309 l 1
 406 352 l 1
EndSplineSet
EndChar
StartChar: oslash
Encoding: 248 248 183
Width: 480
Flags: W
HStem: 407 20G<236 275.785 416 447> 407 20G<236 275.785 416 447>
VStem: 93 54<115.282 264> 333 54<136 284.718>
AnchorPoint: "blwmark" 240 0 basechar 0
AnchorPoint: "abvmark" 240 500 basechar 0
LayerCount: 2
Back
SplineSet
420 400 m 25
 60 0 l 1049
240 400 m 25
 120 280 l 25
 120 120 l 25
 240 0 l 25
 360 120 l 25
 360 280 l 25
 240 400 l 25
EndSplineSet
Fore
SplineSet
224 373 m 1x30
 147 296 l 1
 147 136 l 2
 147 128 148 121 150 115 c 1
 320 303 l 1
 297 334 248 349 224 373 c 1x30
93 264 m 1
 256 427 l 1
 348 334 l 1
 393 384 l 1
 436 427 l 1xb0
 447 416 l 1
 362 321 l 1
 387 296 l 1
 387 136 l 1
 224 -27 l 1
 132 66 l 1
 87 16 l 1
 44 -27 l 1
 33 -16 l 1
 118 79 l 1
 93 104 l 1
 93 264 l 1
160 97 m 1
 183 66 232 51 256 27 c 1
 333 104 l 1
 333 264 l 2
 333 272 332 279 330 285 c 1
 160 97 l 1
EndSplineSet
EndChar
StartChar: dotlessj
Encoding: 567 567 98
Width: 240
Flags: W
HStem: 407 20G<96 136> 407 20G<96 136>
VStem: 93 54<-74 356>
AnchorPoint: "abvmark" 120 500 basechar 0
LayerCount: 2
Back
SplineSet
140 360 m 25
 100 400 l 25
 60 360 l 1049
120 380 m 1
 120 -90 l 9
 80 -130 l 1049
EndSplineSet
Fore
SplineSet
147 396 m 1xa0
 167 376 l 1
 147 356 l 1
 147 -74 l 1
 64 -157 l 1
 53 -146 l 1
 93 -106 l 1
 93 364 l 1
 84 373 l 1
 44 333 l 1
 33 344 l 1
 116 427 l 1
 136 407 l 1
 147 396 l 1xa0
EndSplineSet
EndChar
StartChar: ring
Encoding: 730 730 184
Width: 480
Flags: W
HStem: 498 54<195.852 329.409> 698 54<150.591 284.148>
VStem: 93 54<596.07 695.937> 333 54<554.063 653.93>
LayerCount: 2
Back
SplineSet
120 650 m 0
 120 710 138 725 210 725 c 0
 300 725 360 675 360 600 c 0
 360 540 342 525 270 525 c 0
 180 525 120 575 120 650 c 0
EndSplineSet
Fore
SplineSet
93 634 m 0
 93 662 97 681 108 692 c 2
 151 734 l 2
 151 735 l 2
 164 748 188 752 226 752 c 0
 276 752 316 736 342 710 c 2
 354 699 l 1
 375 678 387 649 387 616 c 0
 387 588 383 569 372 558 c 2
 329 516 l 2
 329 515 l 2
 316 502 292 498 254 498 c 0
 204 498 164 514 138 540 c 2
 126 551 l 1
 105 572 93 601 93 634 c 0
147 666 m 0
 147 635 157 609 175 588 c 0
 201 565 240 552 286 552 c 0
 305 552 319 553 331 555 c 1
 332 563 333 573 333 584 c 0
 333 615 323 641 305 662 c 0
 279 685 240 698 194 698 c 0
 175 698 161 697 149 695 c 1
 148 687 147 677 147 666 c 0
EndSplineSet
EndChar
StartChar: hungarumlaut
Encoding: 733 733 267
Width: 480
Flags: W
HStem: 498 229
VStem: 213 54<649.608 684> 393 54<649.608 684>
LayerCount: 2
Back
SplineSet
420 700 m 17
 420 600 270 525 270 525 c 1049
240 700 m 17
 240 600 90 525 90 525 c 1049
EndSplineSet
Fore
SplineSet
256 727 m 1
 267 716 l 1
 267 676 243 640 214 611 c 2
 172 568 l 2
 129 525 74 498 74 498 c 1
 63 509 l 1
 106 552 l 1
 106 552 143 570 180 601 c 1
 199 625 213 653 213 684 c 1
 256 727 l 1
436 727 m 1
 447 716 l 1
 447 676 423 640 394 611 c 2
 352 568 l 2
 309 525 254 498 254 498 c 1
 243 509 l 1
 286 552 l 1
 286 552 323 570 360 601 c 1
 379 625 393 653 393 684 c 1
 436 727 l 1
EndSplineSet
EndChar
StartChar: breveinvertedbelowcmb
Encoding: 815 815 537
Width: 0
VWidth: 400
Flags: W
HStem: -152 54<-282.142 -154.424>
VStem: -387 324
AnchorPoint: "blwmark" -240 0 mark 0
LayerCount: 2
Back
SplineSet
-90 -200 m 17
 -90 -200 -107.5546875 -125 -240 -125 c 3
 -294 -125 -360 -200 -360 -200 c 1033
EndSplineSet
Fore
SplineSet
-106 -227 m 1
 -117 -216 l 1
 -117 -216 -120 -203 -133 -188 c 0
 -154 -170 -192 -152 -256 -152 c 0
 -290 -152 -328 -181 -352 -203 c 2
 -376 -227 l 1
 -387 -216 l 1
 -387 -216 -383 -211 -376 -204 c 2
 -333 -162 l 2
 -312 -141 -265 -98 -224 -98 c 0
 -153 -98 -116 -120 -96 -140 c 2
 -84 -151 l 2
 -67 -168 -63 -184 -63 -184 c 1
 -106 -227 l 1
EndSplineSet
EndChar
StartChar: Germandbls
Encoding: 7838 7838 136
Width: 840
Flags: W
HStem: -137 54<317.498 507.002> -27 21G<33 59 303 334> 23 54<110.53 275.6> 523 21G<33 63> 548 54<191.352 232> 573 54<106.919 207.259> 573 29<263.744 285>
VStem: 232 16<75 549> 363 54<76 524> 693 54<-94 203 411 453>
AnchorPoint: "abvmark" 480 700 basechar 0
LayerCount: 2
Back
SplineSet
60 0 m 21
 60 0 97 50 180 50 c 7
 298 50 330 0 330 0 c 5
 390 60 l 5
 390 540 l 5
 450 600 l 5
 720 475 l 5
 720 395 l 5
 600 275 l 13
 720 225 l 29
 720 -110 l 29
 630 -200 l 5
 599 -160 500.505859376 -110 420 -110 c 7
 265.80476195 -110 210 -200 210 -200 c 1029
60 550 m 5
 60 550 101 600 149 600 c 7
 192 600 214 575 240 575 c 7
 274 575 300 600 301 600 c 1029
240 550 m 1
 240 75 l 1025
EndSplineSet
Fore
SplineSet
44 523 m 1xf5c0
 33 534 l 1
 33 534 37 539 42 544 c 2
 84 586 l 2
 99 601 131 627 165 627 c 0xf5c0
 208 627 230 602 256 602 c 0xf3c0
 290 602 316 627 317 627 c 2xf5c0
 328 616 l 1
 285 573 l 2xf3c0
 284 573 270 559 248 552 c 1
 248 73 l 1
 302 65 329 45 340 34 c 2
 346 27 l 1
 363 44 l 1
 363 524 l 1
 466 627 l 1xf5c0
 736 502 l 1
 747 491 l 1
 747 411 l 1
 632 295 l 1
 736 252 l 1
 747 241 l 1
 747 -94 l 1
 614 -227 l 1
 603 -216 l 2
 602 -215 601 -212 600 -211 c 0
 559 -175 474 -137 404 -137 c 0
 321 -137 266 -163 234 -187 c 1
 194 -227 l 1
 183 -216 l 2
 183 -216 188 -208 200 -196 c 2
 200 -195 l 2
 243 -153 l 2
 270 -126 329 -83 436 -83 c 0
 510 -83 599 -125 637 -163 c 2
 646 -173 l 1
 693 -126 l 1
 693 203 l 1
 584 248 l 1
 573 259 l 1
 693 379 l 1
 693 453 l 1
 434 573 l 1xf3c0
 417 556 l 1
 417 76 l 1
 314 -27 l 1
 303 -16 l 2
 303 -16 303 -15 302 -14 c 0
 284 0 243 23 164 23 c 0
 111 23 77 3 59 -12 c 2
 44 -27 l 1
 33 -16 l 1
 33 -16 35 -12 39 -8 c 2
 82 34 l 2
 96 48 133 77 196 77 c 0
 209 77 221 76 232 75 c 1
 232 549 l 2
 230 549 227 548 224 548 c 0xf9c0
 198 548 176 573 133 573 c 0
 105 573 80 556 63 541 c 2
 44 523 l 1xf5c0
EndSplineSet
EndChar
StartChar: quotedblrev
Encoding: 8223 8223 929
Width: 600
Flags: W
HStem: 423 194
LayerCount: 2
Back
SplineSet
205 590 m 25
 165 550 l 1
 165 510 l 25
 225 450 l 1049
445 590 m 25
 405 550 l 1
 405 510 l 25
 465 450 l 1049
EndSplineSet
Fore
SplineSet
429 617 m 1
 472 574 l 1
 432 534 l 1
 432 494 l 2
 432 494 447 479 449 477 c 2
 492 434 l 1
 481 423 l 1
 378 526 l 1
 378 566 l 1
 429 617 l 1
189 617 m 1
 232 574 l 1
 192 534 l 1
 192 494 l 2
 192 494 207 479 209 477 c 2
 252 434 l 1
 241 423 l 1
 138 526 l 1
 138 566 l 1
 189 617 l 1
EndSplineSet
EndChar
StartChar: et
Encoding: 8266 8266 960
Width: 480
Flags: W
HStem: -177 21G<153 184> 323 54<165.403 361.52> 407 20G<86 178 376 447> 407 20G<86 178 376 447>
VStem: 153 54<-134 23.1905>
LayerCount: 2
Back
SplineSet
90 400 m 1
 90 400 164 350 270 350 c 3
 335 350 420 400 420 400 c 1
 420 400 180 176 180 -100 c 3
 180 -36 180 -150 180 -150 c 1025
EndSplineSet
Fore
SplineSet
207 -84 m 2xe8
 207 -134 l 1
 164 -177 l 1
 153 -166 l 1
 153 -100 l 1
 153 -96 l 2
 162 108 298 282 361 351 c 1
 331 338 289 323 254 323 c 0
 148 323 74 373 74 373 c 1
 63 384 l 1
 106 427 l 1
 106 427 180 377 286 377 c 0
 351 377 436 427 436 427 c 1
 447 416 l 1
 431 400 l 2
 378 345 214 157 207 -70 c 0
 207 -75 207 -79 207 -84 c 2xe8
EndSplineSet
EndChar
StartChar: bracketangleright
Encoding: 9297 9297 931
Width: 480
Flags: W
HStem: -177 21G<33 64>
LayerCount: 2
Back
SplineSet
90 675 m 17
 90 675 186.56640625 553.8359375 210 525 c 0
 264 459 420 250 420 250 c 1
 420 250 235 60 180 0 c 0
 160.16796875 -22.12890625 60 -150 60 -150 c 1033
EndSplineSet
Fore
SplineSet
106 702 m 1
 117 691 l 1
 117 691 214 570 237 541 c 0
 291 475 447 266 447 266 c 1
 447 266 262 76 207 16 c 0
 187 -6 87 -134 87 -134 c 1
 44 -177 l 1
 33 -166 l 1
 33 -166 133 -38 153 -16 c 0
 208 44 393 234 393 234 c 1
 393 234 237 443 183 509 c 0
 160 538 63 659 63 659 c 1
 106 702 l 1
EndSplineSet
EndChar
StartChar: bracketwhiteright
Encoding: 10215 10215 919
Width: 480
Flags: W
HStem: -177 54<76 202 218 333> 673 54<76 202 218 333>
VStem: 202 16<-123 673> 333 54<-123 673>
LayerCount: 2
Back
SplineSet
210 650 m 25
 210 -100 l 1049
60 700 m 25
 360 700 l 25
 360 -150 l 25
 60 -150 l 1033
EndSplineSet
Fore
SplineSet
33 684 m 1
 76 727 l 1
 376 727 l 1
 387 716 l 1
 387 -134 l 1
 344 -177 l 1
 44 -177 l 1
 33 -166 l 1
 76 -123 l 1
 202 -123 l 1
 202 673 l 1
 44 673 l 1
 33 684 l 1
218 -123 m 1
 333 -123 l 1
 333 673 l 1
 218 673 l 1
 218 -123 l 1
EndSplineSet
EndChar
StartChar: luslst
Encoding: 11788 11788 902
Width: 360
Flags: W
HStem: 423 304
VStem: 33 294
LayerCount: 2
Back
SplineSet
60 700 m 25
 300 450 l 1049
EndSplineSet
Fore
SplineSet
76 727 m 1
 87 716 l 1
 327 466 l 1
 284 423 l 1
 273 434 l 1
 33 684 l 1
 76 727 l 1
EndSplineSet
EndChar
StartChar: Ubracketleft
Encoding: 11814 11814 912
Width: 600
Flags: W
HStem: -27 54<267.968 524> 373 54<269.308 524>
VStem: 93 54<133.58 266.688>
LayerCount: 2
Back
SplineSet
540 400 m 1
 360 400 l 26
 228 400 120 310 120 200 c 27
 120 90 228 0 360 0 c 26
 540 0 l 1025
EndSplineSet
Fore
SplineSet
567 416 m 1
 524 373 l 1
 344 373 l 2
 282 373 226 353 183 321 c 1
 160 290 147 255 147 216 c 0
 147 170 166 127 197 94 c 0
 241 53 305 27 376 27 c 2
 556 27 l 1
 567 16 l 1
 524 -27 l 1
 344 -27 l 2
 270 -27 204 1 160 45 c 2
 160 46 l 1
 149 57 l 2
 114 92 93 136 93 184 c 0
 93 232 114 277 149 312 c 2
 191 354 l 2
 235 398 302 427 376 427 c 2
 556 427 l 1
 567 416 l 1
EndSplineSet
EndChar
StartChar: Ubracketright
Encoding: 11815 11815 913
Width: 600
Flags: W
HStem: -27 54<76 333.344> 373 54<76 332.032>
VStem: 453 54<133.144 266.199>
LayerCount: 2
Back
SplineSet
60 400 m 1
 240 400 l 26
 372 400 480 310 480 200 c 27
 480 90 372 0 240 0 c 26
 60 0 l 1025
EndSplineSet
Fore
SplineSet
33 384 m 1
 76 427 l 1
 256 427 l 2
 330 427 396 398 440 354 c 2
 451 343 l 2
 486 308 507 264 507 216 c 0
 507 168 486 123 451 88 c 2
 409 45 l 2
 365 1 298 -27 224 -27 c 2
 44 -27 l 1
 33 -16 l 1
 76 27 l 1
 256 27 l 2
 318 27 374 46 417 79 c 1
 440 109 453 145 453 184 c 0
 453 230 434 272 403 306 c 0
 359 347 295 373 224 373 c 2
 44 373 l 1
 33 384 l 1
EndSplineSet
EndChar
StartChar: con
Encoding: 42863 42863 890
Width: 480
Flags: W
HStem: -177 21G<273 304> 407 20G<236 276> 407 20G<236 276>
VStem: 93 54<104 264> 333 54<-74 296>
LayerCount: 2
Back
SplineSet
300 -150 m 25
 360 -90 l 1
 360 280 l 9
 240 400 l 1
 120 280 l 25
 120 120 l 25
 240 0 l 1049
EndSplineSet
Fore
SplineSet
284 -177 m 1xd8
 273 -166 l 1
 333 -106 l 1
 333 264 l 2
 333 325 256 341 224 373 c 1
 147 296 l 1
 147 136 l 2
 147 75 224 59 256 27 c 2
 267 16 l 1
 224 -27 l 1
 93 104 l 1
 93 264 l 1
 256 427 l 1
 387 296 l 1
 387 -74 l 1
 284 -177 l 1xd8
EndSplineSet
EndChar
StartChar: thornbar_longs
Encoding: 59189 59189 885
Width: 480
Flags: W
HStem: -227 54<21.566 93.3405> -177 54<-102.126 -23.7456> 407 20G<236 276> 407 20G<236 276> 448 54<46 123 177 224> 563 54<316.95 388.249>
VStem: 123 54<-134 15 75.2844 272 294 326 348 448 502 514> 333 54<136 296>
LayerCount: 2
Back
SplineSet
240 475 m 25
 30 475 l 1049
-150 -200 m 17
 -150 -200 -106 -150 -60 -150 c 8
 -35 -150 33 -200 60 -200 c 24
 86 -200 150 -150 150 -150 c 1
 150 530 l 1
 270 650 l 17
 270 650 300 590 360 590 c 24
 388 590 450 650 451 650 c 1033
60 0 m 1
 60 0 115 60 150 60 c 0
 185 60 240 0 240 0 c 9
 360 120 l 1
 360 280 l 25
 240 400 l 1
 120 280 l 1049
EndSplineSet
Fore
SplineSet
44 -27 m 1x8f
 33 -16 l 1
 33 -16 36 -13 41 -8 c 2
 83 35 l 2
 92 44 107 58 123 69 c 1
 123 272 l 1
 104 253 l 1
 93 264 l 1
 123 294 l 1
 123 448 l 1
 14 448 l 1
 3 459 l 1
 46 502 l 1
 123 502 l 1
 123 514 l 1
 286 677 l 1
 297 666 l 1
 297 666 303 654 314 641 c 0
 329 628 350 617 376 617 c 0
 404 617 466 677 467 677 c 2
 478 666 l 1
 435 623 l 2
 434 623 372 563 344 563 c 0
 314 563 292 578 277 593 c 0
 266 604 l 2
 260 610 256 616 252 621 c 1
 177 546 l 1
 177 502 l 1
 256 502 l 1
 267 491 l 1
 224 448 l 1
 177 448 l 1
 177 348 l 1
 256 427 l 1
 387 296 l 1
 387 136 l 1
 224 -27 l 1
 213 -16 l 1
 213 -16 212 -15 211 -14 c 0
 202 -6 190 6 177 15 c 1
 177 -134 l 1
 134 -177 l 1x6f
 134 -177 70 -227 44 -227 c 0x8f
 17 -227 -51 -177 -76 -177 c 0x4f
 -108 -177 -138 -200 -154 -215 c 2
 -166 -227 l 1x8f
 -177 -216 l 1
 -177 -216 -174 -213 -171 -210 c 2
 -129 -167 l 2
 -116 -154 -80 -123 -44 -123 c 0x4f
 -19 -123 49 -173 76 -173 c 0
 88 -173 107 -163 123 -153 c 1
 123 31 l 1
 101 25 76 4 60 -11 c 2
 44 -27 l 1x8f
177 85 m 1
 203 78 234 48 248 34 c 2
 256 27 l 1
 333 104 l 1
 333 264 l 2
 333 325 256 341 224 373 c 1
 177 326 l 1
 177 85 l 1
EndSplineSet
LCarets2: 1 240 
Ligature2: "Historic ligatures-1" thornbar longs
EndChar
StartChar: k_longs
Encoding: 60334 60334 566
Width: 509
Flags: W
HStem: -227 54<21.566 93.3405> -177 54<-102.126 -23.7456> 432 20G<366 406> 563 54<316.95 388.249>
VStem: 123 54<-134 200 234 514> 363 54<44 180 366 381>
LayerCount: 2
Back
SplineSet
-150 -200 m 17
 -150 -200 -106 -150 -60 -150 c 8
 -35 -150 33 -200 60 -200 c 24
 86 -200 150 -150 150 -150 c 1
 150 530 l 1
 270 650 l 17
 270 650 300 590 360 590 c 24
 388 590 450 650 451 650 c 1033
370 40 m 25
 410 0 l 1049
270 275 m 1
 390 200 l 1
 390 20 l 1025
150 200 m 1
 390 350 l 9
 390 405 l 1049
370 425 m 25
 410 385 l 1049
EndSplineSet
Fore
SplineSet
343 409 m 1xbc
 386 452 l 1
 406 432 l 1
 417 421 l 1
 437 401 l 1
 417 381 l 1
 417 366 l 1
 374 323 l 1
 313 285 l 1
 406 227 l 1
 417 216 l 1
 417 36 l 1
 437 16 l 1
 394 -27 l 1
 374 -7 l 1
 343 24 l 1
 363 44 l 1
 363 180 l 1
 254 248 l 1
 177 200 l 1
 177 -134 l 1
 134 -177 l 1x7c
 134 -177 70 -227 44 -227 c 0xbc
 17 -227 -51 -177 -76 -177 c 0x7c
 -108 -177 -138 -200 -154 -215 c 2
 -166 -227 l 1xbc
 -177 -216 l 1
 -177 -216 -174 -213 -171 -210 c 2
 -129 -167 l 2
 -116 -154 -80 -123 -44 -123 c 0x7c
 -19 -123 49 -173 76 -173 c 0
 88 -173 107 -163 123 -153 c 1
 123 184 l 1
 123 514 l 1
 286 677 l 1
 297 666 l 1
 297 666 303 654 314 641 c 0
 329 628 350 617 376 617 c 0
 404 617 466 677 467 677 c 2
 478 666 l 1
 435 623 l 2
 434 623 372 563 344 563 c 0
 314 563 292 578 277 593 c 0
 266 604 l 2
 260 610 256 616 252 621 c 1
 177 546 l 1
 177 234 l 1
 363 350 l 1
 363 389 l 1
 343 409 l 1xbc
EndSplineSet
LCarets2: 1 270 
Ligature2: "Historic ligatures-1" k longs
EndChar
StartChar: b_g
Encoding: 61123 61123 350
Width: 480
GlyphClass: 3
Flags: W
HStem: -227 54<231.566 303.341> -177 54<107.874 186.254> 407 20G<236 276> 407 20G<236 276>
VStem: 93 54<104 296 318 581> 333 54<-134 82 104 296>
LayerCount: 2
Back
SplineSet
120 605 m 9
 120 120 l 25
 240 0 l 1
 360 120 l 25
 360 280 l 1
 240 400 l 1
 120 280 l 1049
60 -200 m 17
 60 -200 104 -150 150 -150 c 8
 175 -150 243 -200 270 -200 c 24
 296 -200 360 -150 360 -150 c 1
 360 120 l 1033
100 625 m 25
 140 585 l 1049
EndSplineSet
Fore
SplineSet
73 609 m 1x8c
 116 652 l 1
 136 632 l 1
 147 621 l 1
 167 601 l 1
 147 581 l 1
 147 318 l 1
 256 427 l 1
 387 296 l 1
 387 136 l 1
 387 -134 l 1
 344 -177 l 1x6c
 344 -177 280 -227 254 -227 c 0x8c
 227 -227 159 -177 134 -177 c 0x4c
 102 -177 72 -200 56 -215 c 2
 44 -227 l 1x8c
 33 -216 l 1
 33 -216 36 -213 39 -210 c 2
 81 -167 l 2
 94 -154 130 -123 166 -123 c 0x4c
 191 -123 259 -173 286 -173 c 0
 298 -173 317 -163 333 -153 c 1
 333 82 l 1
 224 -27 l 1
 93 104 l 1
 93 589 l 1
 73 609 l 1x8c
147 296 m 1
 147 136 l 2
 147 75 224 59 256 27 c 1
 333 104 l 1
 333 264 l 2
 333 325 256 341 224 373 c 1
 147 296 l 1
EndSplineSet
LCarets2: 1 240 
Ligature2: "Historic ligatures-1" b g
EndChar
StartChar: f_r
Encoding: 61130 61130 352
Width: 660
GlyphClass: 3
Flags: W
HStem: -227 54<21.566 93.3405> -177 54<-102.126 -23.7456> 373 54<76 123 177 384> 407 20G<536 576> 563 54<316.95 388.249>
VStem: 123 54<-134 373 427 514> 393 54<44 296 318 356>
LayerCount: 2
Back
SplineSet
-150 -200 m 1
 -150 -200 -106 -150 -60 -150 c 8
 -35 -150 33 -200 60 -200 c 24
 86 -200 150 -150 150 -150 c 1
 150 530 l 1
 270 650 l 17
 270 650 300 590 360 590 c 24
 388 590 450 650 451 650 c 1025
60 400 m 1
 400 400 l 25
 440 360 l 1025
600 340 m 25
 540 400 l 25
 420 280 l 1049
400 40 m 25
 440 0 l 1049
420 380 m 9
 420 20 l 1025
EndSplineSet
Fore
SplineSet
627 356 m 1x1e
 584 313 l 1
 524 373 l 1
 447 296 l 1
 447 36 l 1
 467 16 l 1
 424 -27 l 1
 404 -7 l 1
 393 4 l 1
 373 24 l 1
 393 44 l 1
 393 264 l 1
 393 364 l 1
 384 373 l 1
 177 373 l 1
 177 -134 l 1
 134 -177 l 1x6e
 134 -177 70 -227 44 -227 c 0x8e
 17 -227 -51 -177 -76 -177 c 0x4e
 -108 -177 -138 -200 -154 -215 c 2
 -166 -227 l 1x8e
 -177 -216 l 1
 -177 -216 -174 -213 -171 -210 c 2
 -129 -167 l 2
 -116 -154 -80 -123 -44 -123 c 0x4e
 -19 -123 49 -173 76 -173 c 0
 88 -173 107 -163 123 -153 c 1
 123 373 l 1
 44 373 l 1
 33 384 l 1
 76 427 l 1
 123 427 l 1
 123 514 l 1
 286 677 l 1
 297 666 l 1
 297 666 303 654 314 641 c 0
 329 628 350 617 376 617 c 0
 404 617 466 677 467 677 c 2
 478 666 l 1
 435 623 l 2
 434 623 372 563 344 563 c 0
 314 563 292 578 277 593 c 0
 266 604 l 2
 260 610 256 616 252 621 c 1
 177 546 l 1
 177 427 l 1xae
 416 427 l 1
 436 407 l 1
 447 396 l 1
 467 376 l 1
 447 356 l 1
 447 318 l 1
 556 427 l 1
 627 356 l 1x1e
EndSplineSet
LCarets2: 1 360 
Ligature2: "Ligatures-1" f r
EndChar
StartChar: t_r
Encoding: 61144 61144 729
Width: 600
Flags: W
HStem: 373 54<76 123 177 324> 557 20G<146 177 476 516>
VStem: 123 54<45.3073 373 427 534> 333 54<44 112 134 296 318 356>
LayerCount: 2
Back
SplineSet
540 340 m 25
 480 400 l 25
 360 280 l 1049
340 40 m 25
 380 0 l 1049
360 380 m 9
 360 20 l 1025
150 550 m 1
 150 60 l 1
 210 0 l 1
 330 120 l 1025
60 400 m 1
 340 400 l 25
 380 360 l 1025
EndSplineSet
Fore
SplineSet
33 384 m 1
 76 427 l 1
 123 427 l 1
 123 534 l 1
 166 577 l 1
 177 566 l 1
 177 427 l 1
 356 427 l 1
 376 407 l 1
 387 396 l 1
 407 376 l 1
 387 356 l 1
 387 318 l 1
 496 427 l 1
 567 356 l 1
 524 313 l 1
 464 373 l 1
 387 296 l 1
 387 36 l 1
 407 16 l 1
 364 -27 l 1
 344 -7 l 1
 333 4 l 1
 313 24 l 1
 333 44 l 1
 333 112 l 1
 194 -27 l 1
 123 44 l 1
 123 373 l 1
 44 373 l 1
 33 384 l 1
177 373 m 1
 177 76 l 2
 177 49 212 41 226 27 c 1
 333 134 l 1
 333 264 l 1
 333 364 l 1
 324 373 l 1
 177 373 l 1
EndSplineSet
LCarets2: 1 360 
Ligature2: "Ligatures-1" t r
EndChar
StartChar: t_z
Encoding: 61148 61148 732
Width: 660
Flags: W
HStem: -227 54<416.37 486.708> -177 54<287.789 373.138> 323 54<178.483 413.518> 407 20G<56 82 424 516> 427 130G<56 82 146 177 424 516>
VStem: 123 54<45.3073 329 400 534> 513 54<-134 79>
LayerCount: 2
Back
SplineSet
60 400 m 1
 60 400 91 350 300 350 c 0
 427 350 480 400 480 400 c 1
 540 340 l 1
 360 200 l 1
 540 100 l 1
 540 -150 l 1
 540 -150 484 -200 450 -200 c 0
 412 -200 381 -150 330 -150 c 16
 284 -150 240 -200 240 -200 c 1033
150 550 m 1
 150 60 l 1
 210 0 l 1
 330 120 l 1025
EndSplineSet
Fore
SplineSet
166 577 m 1xb6
 177 566 l 1
 177 387 l 1
 211 381 256 377 316 377 c 0
 443 377 496 427 496 427 c 1
 567 356 l 1
 524 313 l 1
 398 215 l 1
 556 127 l 1
 567 116 l 1
 567 -134 l 1
 524 -177 l 1x76
 524 -177 468 -227 434 -227 c 0xa6
 396 -227 365 -177 314 -177 c 0x66
 282 -177 251 -201 236 -215 c 2
 224 -227 l 1xa6
 213 -216 l 2
 213 -216 215 -213 218 -210 c 2
 219 -210 l 2
 261 -167 l 2
 274 -154 310 -123 346 -123 c 0x66
 397 -123 428 -173 466 -173 c 0
 480 -173 496 -165 513 -155 c 1
 513 79 l 1
 344 173 l 1
 333 184 l 1
 376 227 l 1
 508 330 l 1
 464 373 l 1
 464 373 411 323 284 323 c 0
 241 323 206 326 177 329 c 1
 177 76 l 2
 177 49 212 41 226 27 c 1
 346 147 l 1
 357 136 l 1
 194 -27 l 1
 123 44 l 1
 123 337 l 1
 73 348 53 364 47 370 c 2
 36 381 l 2
 33 384 l 1
 76 427 l 1
 82 420 l 2
 89 415 101 407 123 400 c 1
 123 534 l 1
 166 577 l 1xb6
EndSplineSet
LCarets2: 1 360 
Ligature2: "Ligatures-1" t z
EndChar
StartChar: a_r
Encoding: 61354 61354 343
Width: 600
GlyphClass: 3
Flags: W
HStem: 198 54<228.375 333> 407 20G<206 346 476 516> 407 20G<206 346 476 516>
VStem: 93 54<106 144> 333 54<46 112 134 198 252 296 318 350>
LayerCount: 2
Back
SplineSet
150 220 m 17
 120 310 l 1
 210 400 l 1
 360 375 l 1
 360 150 l 9
 210 0 l 1
 120 90 l 1
 120 160 l 1
 210 250 l 1
 210 250 232.928594192 225 300 225 c 3
 261.991563428 225 360 225 360 225 c 1033
450 60 m 25
 390 0 l 1
 360 30 l 1
 360 375 l 1025
540 340 m 25
 480 400 l 25
 360 280 l 1049
EndSplineSet
Fore
SplineSet
567 356 m 1xd8
 524 313 l 1
 464 373 l 1
 387 296 l 1
 387 166 l 1
 387 46 l 1
 406 27 l 1
 466 87 l 1
 477 76 l 1
 374 -27 l 1
 333 14 l 1
 333 112 l 1
 194 -27 l 1
 93 74 l 1
 93 144 l 1
 226 277 l 1
 226 276 l 2
 230 272 252 254 308 252 c 0
 310 252 313 252 316 252 c 2
 333 252 l 1
 333 264 l 1
 333 350 l 1
 194 373 l 1
 147 326 l 1
 177 236 l 1
 134 193 l 1
 123 204 l 1
 93 294 l 1
 226 427 l 1
 376 402 l 1
 387 391 l 1
 387 318 l 1
 496 427 l 1
 567 356 l 1xd8
276 198 m 2
 275 198 l 0
 219 200 198 220 195 223 c 2
 194 223 l 1
 147 176 l 1
 147 106 l 1
 226 27 l 1
 333 134 l 1
 333 198 l 1
 276 198 l 2
EndSplineSet
LCarets2: 1 360 
Ligature2: "Historic ligatures-1" a r
EndChar
StartChar: a_thorn
Encoding: 61356 61356 347
Width: 720
Flags: W
HStem: -177 21G<333 364> 198 54<228.375 333> 407 20G<206 333 476 516> 407 20G<206 333 476 516>
VStem: 93 54<106 144> 333 54<-134 16 82 112 134 198 252 296 318 350 409 581> 573 54<136 296>
CounterMasks: 1 0e
LayerCount: 2
Back
SplineSet
150 220 m 17
 120 310 l 1
 210 400 l 1
 360 375 l 1
 360 150 l 9
 210 0 l 1
 120 90 l 1
 120 160 l 1
 210 250 l 1
 210 250 232.928594192 225 300 225 c 3
 261.991563428 225 360 225 360 225 c 1033
300 0 m 1
 300 0 355 60 390 60 c 0
 425 60 480 0 480 0 c 9
 600 120 l 1
 600 280 l 25
 480 400 l 1
 360 280 l 1049
340 625 m 25
 380 585 l 1049
360 605 m 1
 360 -150 l 1025
EndSplineSet
Fore
SplineSet
313 609 m 1xee
 356 652 l 1
 376 632 l 1
 387 621 l 1
 407 601 l 1
 387 581 l 1
 387 391 l 1
 387 318 l 1
 496 427 l 1
 627 296 l 1
 627 136 l 1
 464 -27 l 1
 453 -16 l 1
 453 -16 452 -15 451 -14 c 0
 436 1 410 24 387 31 c 1
 387 -134 l 1
 344 -177 l 1
 333 -166 l 1
 333 16 l 1
 321 7 309 -3 300 -11 c 2
 284 -27 l 1
 273 -16 l 1
 273 -16 276 -13 281 -8 c 2
 323 35 l 2
 326 38 329 40 333 44 c 2
 333 112 l 1
 194 -27 l 1
 93 74 l 1
 93 144 l 1
 226 277 l 1
 226 276 l 2
 230 272 252 254 308 252 c 0
 310 252 313 252 316 252 c 2
 333 252 l 1
 333 264 l 1
 333 350 l 1
 194 373 l 1
 147 326 l 1
 177 236 l 1
 134 193 l 1
 123 204 l 1
 93 294 l 1
 226 427 l 1
 333 409 l 1
 333 589 l 1
 313 609 l 1xee
276 198 m 2
 275 198 l 0
 219 200 198 220 195 223 c 2
 194 223 l 1
 147 176 l 1
 147 106 l 1
 226 27 l 1
 333 134 l 1
 333 198 l 1
 276 198 l 2
387 82 m 1
 394 85 400 87 406 87 c 0
 433 87 472 50 488 34 c 2
 496 27 l 1
 573 104 l 1
 573 264 l 2
 573 325 496 341 464 373 c 1
 387 296 l 1
 387 166 l 1
 387 82 l 1
EndSplineSet
LCarets2: 1 360 
Ligature2: "Historic ligatures-1" a thorn
EndChar
StartChar: c_h
Encoding: 61883 61883 853
Width: 780
Flags: W
HStem: 407 20G<236 276 566 606> 407 20G<236 276 566 606>
VStem: 93 54<104 264> 393 54<44 266 288 581> 633 54<44 326>
LayerCount: 2
Back
SplineSet
360 280 m 9
 240 400 l 25
 120 280 l 25
 120 120 l 25
 240 0 l 25
 360 120 l 1041
640 40 m 25
 680 0 l 1049
400 40 m 25
 440 0 l 1049
400 625 m 25
 440 585 l 1049
420 605 m 9
 420 20 l 1049
660 20 m 25
 660 310 l 25
 570 400 l 1
 420 250 l 1049
EndSplineSet
Fore
SplineSet
373 609 m 1xb8
 416 652 l 1
 441 626 l 1
 447 621 l 1
 467 601 l 1
 447 581 l 1
 447 288 l 1
 586 427 l 1
 687 326 l 1
 687 36 l 1
 707 16 l 1
 664 -27 l 1
 639 -1 l 1
 633 4 l 1
 613 24 l 1
 633 44 l 1
 633 294 l 2
 633 338 577 350 554 373 c 1
 447 266 l 1
 447 36 l 1
 467 16 l 1
 424 -27 l 1
 404 -7 l 1
 393 4 l 1
 373 24 l 1
 393 44 l 1
 393 234 l 1
 393 589 l 1
 373 609 l 1xb8
387 296 m 1
 344 253 l 1
 224 373 l 1
 147 296 l 1
 147 136 l 2
 147 75 224 59 256 27 c 1
 376 147 l 1
 387 136 l 1
 224 -27 l 1
 93 104 l 1
 93 264 l 1
 256 427 l 1
 387 296 l 1
EndSplineSet
LCarets2: 1 360 
Ligature2: "Ligatures-1" c h
EndChar
StartChar: m.alt
Encoding: 61987 61987 588
Width: 720
Flags: W
HStem: 407 20G<96 136 266 306 506 546> 407 20G<96 136 266 306 506 546>
VStem: 93 54<44 266 288 356> 333 54<44 266 288 326> 573 54<-74 326>
CounterMasks: 1 38
AnchorPoint: "abvmark" 360 500 basechar 0
LayerCount: 2
Back
SplineSet
340 40 m 25
 380 0 l 1049
360 20 m 1
 360 310 l 25
 270 400 l 1
 120 250 l 1049
100 40 m 25
 140 0 l 1049
140 360 m 25
 100 400 l 1049
120 380 m 9
 120 20 l 1025
560 -130 m 25
 600 -90 l 1
 600 310 l 9
 510 400 l 1
 360 250 l 1049
EndSplineSet
Fore
SplineSet
544 -157 m 1xb8
 533 -146 l 1
 573 -106 l 1
 573 294 l 2
 573 338 517 350 494 373 c 1
 387 266 l 1
 387 36 l 1
 407 16 l 1
 364 -27 l 1
 344 -7 l 1
 333 4 l 1
 313 24 l 1
 333 44 l 1
 333 234 l 1
 333 294 l 2
 333 338 277 350 254 373 c 1
 147 266 l 1
 147 36 l 1
 167 16 l 1
 124 -27 l 1
 104 -7 l 1
 93 4 l 1
 73 24 l 1
 93 44 l 1
 93 234 l 1
 93 364 l 1
 73 384 l 1
 116 427 l 1
 136 407 l 1
 147 396 l 1
 167 376 l 1
 147 356 l 1
 147 288 l 1
 286 427 l 1
 387 326 l 1
 387 288 l 1
 526 427 l 1
 627 326 l 1
 627 -74 l 1
 544 -157 l 1xb8
EndSplineSet
EndChar
StartChar: f_i
Encoding: 64257 64257 321
Width: 540
Flags: W
HStem: -227 54<20.5755 99.0444> -177 54<-102.126 -20.5755> 373 54<76 123 177 384> 523 21G<403 434>
VStem: 123 54<-134 373 427 514> 393 54<44 356>
LayerCount: 2
Back
SplineSet
420 380 m 9
 420 20 l 1025
400 40 m 25
 440 0 l 25
 480 40 l 1049
60 400 m 1
 400 400 l 25
 440 360 l 1025
-150 -200 m 1
 -150 -200 -106 -150 -60 -150 c 8
 -9 -150 9 -200 60 -200 c 24
 100 -200 150 -150 150 -150 c 1
 150 530 l 1
 270 650 l 1
 270 650 390 590 470 590 c 9
 430 550 l 1025
EndSplineSet
Fore
SplineSet
-166 -227 m 1xbc
 -177 -216 l 1
 -177 -216 -174 -213 -171 -210 c 2
 -129 -167 l 2
 -116 -154 -80 -123 -44 -123 c 0x7c
 7 -123 25 -173 76 -173 c 0xbc
 92 -173 108 -165 123 -156 c 1
 123 373 l 1
 44 373 l 1
 33 384 l 1
 76 427 l 1
 123 427 l 1
 123 514 l 1
 286 677 l 1
 286 677 406 617 486 617 c 1
 497 606 l 1
 414 523 l 1
 403 534 l 1
 433 564 l 1
 355 573 254 623 254 623 c 1
 177 546 l 1
 177 427 l 1
 416 427 l 1
 436 407 l 1
 447 396 l 1
 467 376 l 1
 447 356 l 1
 447 36 l 1
 456 27 l 1
 496 67 l 1
 507 56 l 1
 424 -27 l 1
 404 -7 l 1
 393 4 l 1
 373 24 l 1
 393 44 l 1
 393 364 l 1
 384 373 l 1
 177 373 l 1
 177 -134 l 1
 134 -177 l 1x7c
 134 -177 84 -227 44 -227 c 0xbc
 -7 -227 -25 -177 -76 -177 c 0x7c
 -108 -177 -138 -200 -154 -215 c 2
 -166 -227 l 1xbc
EndSplineSet
LCarets2: 1 360 
Ligature2: "Ligatures-1" f i
EndChar
